<?xml version="1.0" encoding="UTF-8" standalone="no"?>
<!-- Created with Inkscape (http://www.inkscape.org/) -->

<svg
   xmlns:dc="http://purl.org/dc/elements/1.1/"
   xmlns:cc="http://creativecommons.org/ns#"
   xmlns:rdf="http://www.w3.org/1999/02/22-rdf-syntax-ns#"
   xmlns:svg="http://www.w3.org/2000/svg"
   xmlns="http://www.w3.org/2000/svg"
   xmlns:sodipodi="http://sodipodi.sourceforge.net/DTD/sodipodi-0.dtd"
   xmlns:inkscape="http://www.inkscape.org/namespaces/inkscape"
   version="1.1"
   width="164.47786"
   height="164.47774"
   id="svg7935"
   inkscape:version="0.48.3.1 r9886"
   sodipodi:docname="moon.svg">
  <sodipodi:namedview
     pagecolor="#ffffff"
     bordercolor="#666666"
     borderopacity="1"
     objecttolerance="10"
     gridtolerance="10"
     guidetolerance="10"
     inkscape:pageopacity="0"
     inkscape:pageshadow="2"
     inkscape:window-width="1600"
     inkscape:window-height="832"
     id="namedview21"
     showgrid="false"
     inkscape:zoom="1.4348446"
     inkscape:cx="82.23893"
     inkscape:cy="82.238869"
     inkscape:window-x="-1"
     inkscape:window-y="-15"
     inkscape:window-maximized="1"
     inkscape:current-layer="svg7935" />
  <defs
     id="defs7937">
    <filter
       x="-0.40840337"
       y="-0.40840337"
       width="1.8168067"
       height="1.8168067"
       color-interpolation-filters="sRGB"
       id="filter3878">
      <feGaussianBlur
         stdDeviation="28.34465"
         id="feGaussianBlur3880" />
    </filter>
  </defs>
  <metadata
     id="metadata7940">
    <rdf:RDF>
      <cc:Work
         rdf:about="">
        <dc:format>image/svg+xml</dc:format>
        <dc:type
           rdf:resource="http://purl.org/dc/dcmitype/StillImage" />
        <dc:title />
      </cc:Work>
    </rdf:RDF>
  </metadata>
  <g
     transform="matrix(-1,0,0,1,164.47784,9.9937041e-6)"
     id="g3330">
    <rect
       width="164.47772"
       height="164.47772"
       x="0.00011523438"
       y="-4.1406252e-06"
       id="rect3110"
       style="fill:#cad4ed;fill-opacity:1;stroke:none" />
    <g
       id="g3319">
      <g
         transform="matrix(1.6447772,0,0,1.6447772,-2148.9014,-884.66345)"
         id="g6038">
        <g
           id="g5933">
          <g
             id="g5886">
            <g
               id="g5871">
              <g
                 id="g5862">
                <g
                   id="g5856" />
              </g>
            </g>
            <g
               id="g5882">
              <path
                 d="m 1356.5,625.36218 12.5,0 0,12.5 -12.5,0 z m 25,-12.5 12.5,0 0,12.5 -12.5,0 z m 12.5,-25 12.5,0 0,12.5 -12.5,0 z m -75,-12.5 12.5,0 0,12.5 -12.5,0 z m -12.5,0 12.5,0 0,12.5 -12.5,0 z m 75,-12.5 12.5,0 0,12.5 -12.5,0 z m 0,-12.5 12.5,0 0,12.5 -12.5,0 z m -37.5,-12.5 12.5,0 0,12.5 -12.5,0 z m -25,0 12.5,0 0,12.5 -12.5,0 z m 0,75 12.5,0 0,12.5 -12.5,0 z m 37.5,-25 12.5,0 0,12.5 -12.5,0 z m 0,-12.5 12.5,0 0,12.5 -12.5,0 z"
                 id="rect3112-8-8-8-7-7-4"
                 style="fill:#888e9c;fill-opacity:1;stroke:none"
                 inkscape:connector-curvature="0" />
            </g>
          </g>
        </g>
      </g>
      <path
         d="m 143.91802,143.91801 20.55971,0 0,20.55971 -20.55971,0 z m -20.55972,0 20.55972,0 0,20.55971 -20.55972,0 z m -20.55971,0 20.55971,0 0,20.55971 -20.55971,0 z m -41.119433,0 20.559715,0 0,20.55971 -20.559715,0 z m -20.559715,0 20.559715,0 0,20.55971 -20.559715,0 z m -20.559715,0 20.559715,0 0,20.55971 -20.559715,0 z m -20.5597152,0 20.5597152,0 0,20.55971 -20.5597152,0 z m 0,-20.55972 20.5597152,0 0,20.55972 -20.5597152,0 z m 0,-20.55971 20.5597152,0 0,20.55971 -20.5597152,0 z m 41.1194302,-20.55972 20.559715,0 0,20.55972 -20.559715,0 z m -41.1194302,0 20.5597152,0 0,20.55972 -20.5597152,0 z m 20.5597152,0 20.559715,0 0,20.55972 -20.559715,0 z m 82.238863,41.11943 20.55971,0 0,20.55972 -20.55971,0 z m -20.559718,0 20.559718,0 0,20.55972 -20.559718,0 z m -20.559715,0 20.559715,0 0,20.55972 -20.559715,0 z m 61.679143,-20.55971 20.55972,0 0,20.55971 -20.55972,0 z m -20.55971,0 20.55971,0 0,20.55971 -20.55971,0 z m -20.559718,0 20.559718,0 0,20.55971 -20.559718,0 z m -20.559715,0 20.559715,0 0,20.55971 -20.559715,0 z m 0,-20.55972 20.559715,0 0,20.55972 -20.559715,0 z m 61.679143,-20.559715 20.55972,0 0,20.559715 -20.55972,0 z m -20.55971,0 20.55971,0 0,20.559715 -20.55971,0 z m -41.119433,0 20.559715,0 0,20.559715 -20.559715,0 z m 41.119433,-20.559715 20.55971,0 0,20.559715 -20.55971,0 z m -41.119433,0 20.559715,0 0,20.559715 -20.559715,0 z m -61.6791452,0 20.5597152,0 0,20.559715 -20.5597152,0 z m 20.5597152,-20.559715 20.559715,0 0,20.559715 -20.559715,0 z m -20.5597152,0 20.5597152,0 0,20.559715 -20.5597152,0 z m 0,-20.55971459370373 20.5597152,0 0,20.55971459370373 -20.5597152,0 z M 102.79859,20.559715 l 20.55971,0 0,20.559715 -20.55971,0 z"
         id="rect3112-7-1-9-8-2-6-2-5"
         style="fill:#abb0c4;fill-opacity:1;stroke:none"
         inkscape:connector-curvature="0" />
    </g>
  </g>
  <g
     transform="matrix(-1.6447772,0,0,1.6447772,2328.1823,-848.47835)"
     id="g6964"
     style="opacity:0.49769586;fill:#242739;fill-opacity:1">
    <path
       d="m 1315.5,590.86218 100,0 0,25 -100,0 z m 0,-75 25,0 0,100 -25,0 z"
       id="rect6944-1"
       style="fill:#242739;stroke:none"
       inkscape:connector-curvature="0" />
  </g>
</svg>
